<?xml version="1.0" encoding="UTF-8" standalone="no"?>
<!-- Created with Inkscape (http://www.inkscape.org/) -->

<svg
   width="200mm"
   height="200mm"
   viewBox="0 0 200 200"
   version="1.1"
   id="svg1"
   xml:space="preserve"
   inkscape:version="1.4.2 (ebf0e940, 2025-05-08)"
   sodipodi:docname="r2hermes.svg"
   xmlns:inkscape="http://www.inkscape.org/namespaces/inkscape"
   xmlns:sodipodi="http://sodipodi.sourceforge.net/DTD/sodipodi-0.dtd"
   xmlns="http://www.w3.org/2000/svg"
   xmlns:svg="http://www.w3.org/2000/svg"
   xmlns:inkscape0="https://www.inkscape.org/namespaces/inkscape"><sodipodi:namedview
     id="namedview1"
     pagecolor="#ffffff"
     bordercolor="#000000"
     borderopacity="0.25"
     inkscape:showpageshadow="2"
     inkscape:pageopacity="0.0"
     inkscape:pagecheckerboard="0"
     inkscape:deskcolor="#d1d1d1"
     inkscape:document-units="mm"
     inkscape:zoom="0.65979082"
     inkscape:cx="365.26728"
     inkscape:cy="427.40819"
     inkscape:window-width="1544"
     inkscape:window-height="987"
     inkscape:window-x="222"
     inkscape:window-y="44"
     inkscape:window-maximized="0"
     inkscape:current-layer="layer1" /><defs
     id="defs1" /><g
     inkscape:label="Layer 1"
     inkscape:groupmode="layer"
     id="layer1"><path
       style="fill:#000000;stroke-width:2.07237"
       d="m 65.405259,182.40488 c 8.08363,-1.31155 15.545839,-5.228 27.944365,-14.66619 3.105915,-2.36433 5.83115,-4.29879 6.0561,-4.29879 0.22491,0 3.287466,2.24953 6.805676,4.99895 12.97156,10.13707 22.71012,14.36051 32.02796,13.88998 8.20183,-0.41416 12.80798,-4.26906 16.08053,-13.45777 1.91346,-5.37259 2.29499,-20.84084 0.73918,-29.96811 -0.66776,-3.91748 -0.95174,-7.34867 -0.63106,-7.62487 0.32066,-0.27621 3.54393,-1.74852 7.1628,-3.27179 11.88898,-5.00441 18.05863,-8.46822 22.31527,-12.52834 11.35847,-10.83415 11.16153,-20.986376 -0.61644,-31.778748 -5.03438,-4.613098 -14.86053,-10.036823 -24.31596,-13.421646 l -5.54144,-1.98371 0.96825,-4.882283 c 1.5104,-7.615982 2.03694,-21.007379 1.05512,-26.834672 -2.53415,-15.040824 -11.30206,-22.001727 -24.07884,-19.116366 -8.57482,1.93644 -16.48902,6.477513 -30.57361,17.54278 -1.688876,1.326834 -1.718076,1.312777 -9.566219,-4.604651 -25.39237,-19.145631 -42.985514,-17.789987 -48.051634,3.702633 -1.43768,6.099251 -1.423548,17.269444 0.03345,26.433827 0.638137,4.013848 0.884878,7.536494 0.548313,7.828101 -0.336567,0.291609 -2.750361,1.28414 -5.363986,2.205627 -2.613629,0.921487 -7.054966,2.828803 -9.86964,4.238481 -26.2070036,13.125292 -29.8334427,29.994037 -9.54137,44.382647 5.359465,3.80026 11.124311,6.71237 19.47139,9.83592 l 6.274598,2.34801 -1.088676,5.24951 c -0.655525,3.16087 -1.115861,9.61263 -1.157005,16.21576 -0.05999,9.62896 0.135018,11.55446 1.599087,15.78953 3.105332,8.98262 7.427923,12.83351 16.244148,14.4715 0.20104,0.0374 2.482391,-0.27553 5.069643,-0.69532 z m -8.852167,-10.12344 c -3.751344,-2.97305 -6.085299,-14.77458 -4.985876,-25.21082 0.888267,-8.43185 1.555743,-12.11741 2.275049,-12.56197 0.34399,-0.21259 5.646833,0.46084 11.784093,1.49653 12.711453,2.14513 11.070753,1.1235 20.576734,12.81302 l 6.242461,7.6764 -2.71268,2.39074 c -9.130327,8.04677 -19.716332,13.76414 -26.838471,14.49514 -3.77633,0.38757 -4.658421,0.23469 -6.34131,-1.09904 z m 73.818708,0.0207 c -5.40534,-1.77815 -9.64358,-4.27951 -17.92297,-10.57797 l -6.73906,-5.12666 3.13901,-3.70679 c 1.72644,-2.03872 5.1939,-6.25609 7.70544,-9.37193 2.51155,-3.11585 5.28303,-5.82911 6.15887,-6.02949 1.94032,-0.44394 20.59258,-3.29257 21.55902,-3.29257 1.08625,0 2.65075,11.33101 2.67497,19.37373 0.0391,13.01979 -2.82778,19.24338 -9.12516,19.80859 -1.9941,0.17904 -4.91659,-0.24347 -7.45012,-1.07691 z m -36.172965,-28.07332 -4.518716,-5.28005 4.701481,-0.21618 c 2.585816,-0.11889 6.856,-0.11889 9.4893,0 l 4.7878,0.21618 -4.49901,5.30037 c -2.47443,2.91518 -4.711196,5.29121 -4.970576,5.28005 -0.25936,-0.011 -2.504992,-2.39635 -4.990279,-5.30037 z m -7.77842,-14.96041 -4.255191,-0.26532 -4.355269,-6.72452 c -5.439438,-8.39848 -11.625669,-20.34073 -11.625669,-22.442863 0,-2.105876 6.189501,-14.049411 11.650254,-22.480845 l 4.379853,-6.76253 h 16.819551 16.819506 l 3.5512,5.30036 c 4.06848,6.072519 10.45604,17.295145 12.14627,21.340435 l 1.14799,2.747513 -4.11174,8.03841 c -2.26146,4.42112 -6.00156,10.91641 -8.3113,14.43398 l -4.19957,6.39559 -6.12059,0.47639 c -6.08243,0.47343 -15.393643,0.45101 -23.535295,-0.0566 z m -23.660648,-3.01883 c -3.290834,-0.65524 -6.166359,-1.38013 -6.390062,-1.61089 -0.436965,-0.45069 3.070702,-11.61604 3.958794,-12.60133 0.40219,-0.4462 7.771942,11.34737 9.389357,15.02548 0.28811,0.6552 0.599983,0.69163 -6.958089,-0.81326 z m 65.732503,0.89746 c 6.64942,-11.94184 8.90852,-15.59436 9.3454,-15.10968 0.83096,0.92192 4.38345,12.05732 4.02936,12.63022 -0.17345,0.28066 -2.7153,0.91951 -5.64856,1.41968 -2.93327,0.50016 -5.95013,1.08422 -6.70417,1.2979 -0.75403,0.21368 -1.21393,0.10652 -1.02203,-0.23812 z M 40.005184,119.92199 C 29.137487,115.74039 18.735382,108.57757 16.083732,103.44985 13.899781,99.226547 14.580281,97.184361 19.943193,91.867578 25.253006,86.603437 33.09917,82.027199 41.911899,79.054431 l 4.850434,-1.636179 4.235148,11.284153 4.23515,11.284154 -4.136306,10.890761 c -2.99014,7.87294 -4.460892,10.88087 -5.30767,10.85503 -0.644249,-0.0186 -3.24681,-0.83432 -5.783471,-1.81036 z m 107.143396,-9.20743 -4.20703,-11.051106 4.13229,-10.880221 c 3.12305,-8.22283 4.44062,-10.880218 5.39457,-10.880218 2.21207,0 13.66146,4.960442 18.49426,8.012637 2.56597,1.620561 6.35959,4.737825 8.43028,6.927254 3.29211,3.480926 3.76485,4.362967 3.76485,7.024508 0,2.787706 -0.4151,3.454746 -4.93483,7.930046 -3.06936,3.03918 -6.92045,5.91803 -10.18754,7.61558 -5.43168,2.82227 -14.20922,6.35595 -15.78264,6.35383 -0.49344,-6.6e-4 -2.79033,-4.97421 -5.10421,-11.05231 z M 59.992728,87.32898 c -2.345369,-6.331151 -3.945993,-11.996043 -3.499922,-12.386837 0.600454,-0.526047 12.734475,-3.012835 13.068922,-2.678391 0.22244,0.222439 -7.925708,14.81773 -8.7104,15.602422 -0.264717,0.264716 -0.651086,0.02298 -0.8586,-0.537194 z m 72.901162,-7.023738 c -2.4819,-4.300108 -4.41643,-7.914508 -4.29895,-8.032001 0.33879,-0.338789 12.46534,2.131868 13.07301,2.663491 0.525,0.459308 -2.783,11.529369 -3.77888,12.645862 -0.26542,0.297565 -2.51325,-2.977245 -4.99518,-7.277352 z M 52.413642,60.17422 c -2.119719,-13.841132 -1.683314,-23.130094 1.367633,-29.110445 2.150462,-4.215252 4.305155,-5.353541 9.181231,-4.850286 6.541953,0.675189 14.769659,5.014731 24.901836,13.133999 l 4.499562,3.60566 -7.625834,9.403472 c -6.329979,7.805543 -8.026334,9.47046 -9.982698,9.797688 -12.764868,2.135094 -20.18864,3.320272 -20.797666,3.320272 -0.402783,0 -1.097612,-2.385162 -1.544064,-5.30036 z m 81.395948,3.744702 c -4.42305,-0.757226 -9.09515,-1.551357 -10.38243,-1.764733 -1.91822,-0.317959 -3.73735,-2.064957 -10.08255,-9.682819 l -7.74207,-9.294863 3.13726,-2.755457 c 5.56566,-4.888322 15.08992,-10.871881 20.14515,-12.656079 11.97381,-4.226052 15.64912,-1.447113 17.77573,13.440431 0.73059,5.114719 0.15336,13.885956 -1.4045,21.34484 -0.65515,3.136521 -0.92907,3.169277 -11.44659,1.36868 z M 90.967301,59.077591 c 0.818332,-1.105763 2.978941,-3.655422 4.801339,-5.665904 l 3.313454,-3.655422 2.587556,2.924339 c 1.42315,1.608386 3.58944,4.158041 4.81398,5.665903 l 2.22642,2.741568 h -9.615316 -9.615316 z"
       id="path1"
       sodipodi:nodetypes="ssscsssssssscsssssssssssscssssssssssscsscsscsssssccsccccscsccssscccsscsscssssssscsssscsssscccscsscssssssssssssssssssssssscssssssscsssscsscssccc" /><path
       style="fill:#1a1a1a;stroke-width:0.116743"
       d="m 99.09343,86.984035 c -0.433378,0.01898 -1.279722,-0.04797 -1.166293,0.626811 -0.07594,1.725589 -0.01063,3.460018 -0.08505,5.180484 -1.583015,-2.272255 -3.661797,-4.374412 -6.38905,-5.173624 -1.820358,-0.634195 -3.799636,-0.502714 -5.687046,-0.337252 -2.578839,0.461946 -4.988,2.259769 -5.748925,4.831396 -1.044344,3.15068 0.554172,6.85477 3.396683,8.47144 2.819126,1.35582 6.537812,1.15347 8.845863,-1.10658 1.26105,-1.14881 1.988894,-2.83896 1.858987,-4.55045 0.04593,-1.18872 -0.0836,-2.39009 0.02806,-3.57187 0.739949,-0.12582 1.19556,0.73185 1.596618,1.21831 1.406494,1.95756 1.5765,4.4103 1.604586,6.73006 0.112076,5.45862 0.04861,10.93116 0.06875,16.39512 -1.50075,0.0423 -3.039804,-0.083 -4.517192,0.0616 0.07047,0.51904 -0.422063,1.8136 0.477918,1.66633 7.588321,0 15.176631,0 22.764951,0 0.22573,-0.34655 0.38535,-1.573 -0.11674,-1.7279 -0.9962,0 -1.99239,0 -2.98859,0 0,-8.80241 0,-17.60483 0,-26.407248 1.0731,-0.04054 2.18324,0.081 3.23302,-0.06156 -0.0571,-0.49214 0.39445,-1.669191 -0.46772,-1.548211 -5.0858,-0.237955 -10.17665,-0.369779 -15.25934,-0.677209 -0.48295,-0.01632 -0.96624,-0.02889 -1.44949,-0.01961 z"
       id="path68"
       inkscape0:connector-curvature="0" /></g></svg>
